Coordinates
version=1
nRows=38
nColumns=12
inDegrees=yes

Units are S.I. units (second, meters, Newtons, ...)
Angles are in degrees

endheader
time	SC_y	SC_z	SC_x	AC_y	AC_z	AC_x	GH_y	GH_z	GH_yy	EL_x	PS_y
       0.0               -48.4          10.04          72.05          36.95         -3.322         -3.774         -81.74          52.96         -16.58          124.1           39.5
   0.04916               -48.4          10.04          72.05          36.95         -3.325         -3.773         -81.74          52.95         -16.58          124.1          39.51
   0.09832               -48.4          10.04          72.05          36.96         -3.327         -3.772         -81.75          52.94          -16.6          124.1          39.52
    0.1475              -48.39          10.04          72.05          36.96          -3.33         -3.771         -81.75          52.93         -16.61          124.0          39.54
    0.1966              -48.39          10.04          72.05          36.97         -3.333          -3.77         -81.76          52.91         -16.62          124.0          39.55
    0.2458              -48.38          10.04          72.05          36.97         -3.336         -3.768         -81.76           52.9         -16.63          124.0          39.57
     0.295              -48.38          10.04          72.05          36.98         -3.339         -3.767         -81.77          52.89         -16.64          124.0          39.58
    0.3441              -48.37          10.04          72.05          36.98         -3.342         -3.765         -81.78          52.87         -16.66          124.0           39.6
    0.3933              -48.37          10.04          72.05          36.99         -3.346         -3.763         -81.78          52.86         -16.67          123.9          39.62
    0.4424              -48.36          10.04          72.05           37.0          -3.35         -3.761         -81.79          52.84         -16.69          123.9          39.64
    0.4916              -48.35          10.04          72.05          37.01         -3.354         -3.759          -81.8          52.82         -16.71          123.9          39.66
    0.5408              -48.35          10.04          72.05          37.01         -3.358         -3.757         -81.81           52.8         -16.72          123.8          39.69
    0.5899              -48.34          10.04          72.05          37.02         -3.363         -3.755         -81.81          52.78         -16.74          123.8          39.71
    0.6391              -48.33          10.05          72.05          37.03         -3.368         -3.752         -81.82          52.76         -16.77          123.8          39.74
    0.6882              -48.32          10.05          72.05          37.04         -3.374          -3.75         -81.84          52.73         -16.79          123.7          39.77
    0.7374              -48.31          10.05          72.05          37.05          -3.38         -3.747         -81.85           52.7         -16.81          123.7           39.8
    0.7865               -48.3          10.05          72.05          37.07         -3.387         -3.744         -81.86          52.67         -16.84          123.7          39.84
    0.8357              -48.29          10.05          72.05          37.08         -3.394          -3.74         -81.87          52.64         -16.87          123.6          39.88
    0.8849              -48.28          10.05          72.05           37.1         -3.402         -3.736         -81.89          52.61         -16.91          123.5          39.92
     0.934              -48.27          10.05          72.05          37.11         -3.411         -3.732          -81.9          52.57         -16.94          123.5          39.97
    0.9832              -48.25          10.05          72.05          37.13          -3.42         -3.728         -81.92          52.53         -16.98          123.4          40.02
     1.032              -48.24          10.06          72.05          37.15         -3.431         -3.723         -81.94          52.48         -17.02          123.4          40.07
     1.082              -48.22          10.06          72.05          37.17         -3.442         -3.717         -81.96          52.43         -17.07          123.3          40.13
     1.131               -48.2          10.06          72.05          37.19         -3.455         -3.711         -81.99          52.37         -17.13          123.2           40.2
      1.18              -48.18          10.06          72.05          37.22         -3.469         -3.704         -82.01          52.31         -17.19          123.1          40.28
     1.229              -48.15          10.06          72.05          37.25         -3.485         -3.697         -82.04          52.24         -17.25          123.0          40.36
     1.278              -48.13          10.07          72.05          37.28         -3.503         -3.688         -82.08          52.16         -17.33          122.9          40.46
     1.327               -48.1          10.07          72.05          37.32         -3.523         -3.678         -82.12          52.07         -17.41          122.7          40.56
     1.376              -48.06          10.07          72.05          37.36         -3.546         -3.668         -82.16          51.97          -17.5          122.6          40.68
     1.426              -48.02          10.08          72.05          37.41         -3.571         -3.655         -82.21          51.85         -17.61          122.4          40.82
     1.475              -47.98          10.08          72.05          37.46         -3.601         -3.641         -82.26          51.72         -17.73          122.2          40.97
     1.524              -47.92          10.09          72.05          37.52         -3.634         -3.625         -82.32          51.57         -17.87          122.0          41.15
     1.573              -47.87          10.09          72.05          37.59         -3.673         -3.606          -82.4           51.4         -18.03          121.7          41.36
     1.622               -47.8           10.1          72.05          37.68         -3.719         -3.585         -82.48           51.2         -18.22          121.4           41.6
     1.671              -47.72          10.11          72.05          37.78         -3.771         -3.559         -82.58          50.97         -18.44          121.0          41.88
     1.721              -47.62          10.12          72.05          37.89         -3.834          -3.53          -82.7          50.69          -18.7          120.6          42.21
      1.77              -47.51          10.13          72.05          38.03         -3.908         -3.494         -82.84          50.36         -19.01          120.1           42.6
     1.819              -47.37          10.15          72.05          38.19         -3.997         -3.452         -83.01          49.97         -19.38          119.5          43.07
